inDegrees=yes
name=ik_S40_A09_T02
DataType=double
version=3
OpenSimVersion=4.3-2021-08-27-4bc7ad9
endheader
time	pelvis_tilt	pelvis_list	pelvis_rotation	pelvis_tx	pelvis_ty	pelvis_tz	hip_flexion_r	hip_adduction_r	hip_rotation_r	knee_angle_r	knee_angle_r_beta	ankle_angle_r	subtalar_angle_r	mtp_angle_r	hip_flexion_l	hip_adduction_l	hip_rotation_l	knee_angle_l	knee_angle_l_beta	ankle_angle_l	subtalar_angle_l	mtp_angle_l	lumbar_extension	lumbar_bending	lumbar_rotation	arm_flex_r	arm_add_r	arm_rot_r	elbow_flex_r	pro_sup_r	wrist_flex_r	wrist_dev_r	arm_flex_l	arm_add_l	arm_rot_l	elbow_flex_l	pro_sup_l	wrist_flex_l	wrist_dev_l
16.95999999999973	-9.030905260204236	-3.057427826795373	26.4955190238064	0	0.9399999999999999	0	44.73626146506912	-10.07411390671998	-10.15447705514311	54.57074666747478	0.9524392046191581	0	0	0	44.73626146506912	-10.07411390671998	-10.15447705514311	54.57074666747478	0.9524392046191581	0	0	0	-8.419205085378676	-3.125627439798065	9.103136048686219	65.5005629414308	0.3188779600217962	30.31806344230227	36.20524749509659	103.7280398117405	0	0	79.52836551613967	6.762121122167795	11.8878096974984	35.08107724185084	97.83003196353803	0	0
16.97999999999973	-9.114950160897159	-3.130638314631421	26.5548025330318	0	0.9399999999999999	0	44.73640467361981	-10.07397387315578	-10.15428957975168	54.57090329073877	0.9524419382107999	0	0	0	44.73640467361981	-10.07397387315578	-10.15428957975168	54.57090329073877	0.9524419382107999	0	0	0	-8.541490626241444	-3.10476189847161	8.820543362456423	65.73418284334795	0.4952961666784338	30.41061561197152	36.26775478777364	103.7917785018856	0	0	81.0181486446796	5.878824230155348	12.21122488898922	32.68794270352609	97.87295135507675	0	0
16.99999999999973	-9.197544843598465	-3.206254804149393	26.62802723899653	0	0.9399999999999999	0	44.73656347208554	-10.07381954244382	-10.15408249510629	54.57107779689336	0.9524449839177624	0	0	0	44.73656347208554	-10.07381954244382	-10.15408249510629	54.57107779689336	0.9524449839177624	0	0	0	-8.666822789576829	-3.078478437245594	8.501796283399104	65.88089323975649	0.5662488982633864	30.34213420667374	36.5208636945087	103.9517102162522	0	0	82.54573820678979	5.112557332917591	12.23696727080936	29.70381486714315	97.9984560463914	0	0
17.01999999999973	-9.239621663057198	-3.233436268870727	26.66723535256956	0	0.9399999999999999	0	44.7366619393646	-10.07372421434891	-10.15395438448138	54.57118627027862	0.952446877135486	0	0	0	44.7366619393646	-10.07372421434891	-10.15395438448138	54.57118627027862	0.952446877135486	0	0	0	-8.728437611531167	-3.044140064307312	8.277868957466742	65.9903911866309	0.7154790355474406	30.43739346319086	36.61838819838204	104.0643549341265	0	0	83.80385104589327	4.722726553199896	11.8934956145404	27.61647514330879	98.31778706058059	0	0
17.03999999999973	-9.235821435743093	-3.236405451732751	26.93448988168561	0	0.9399999999999999	0	44.73694845485389	-10.07344778343241	-10.15358215004449	54.57150159834664	0.9524523806484969	0	0	0	44.73694845485389	-10.07344778343241	-10.15358215004449	54.57150159834664	0.9524523806484969	0	0	0	-8.740126393951039	-3.002930070160623	8.037010137386147	65.82262564750521	0.4756050385569251	29.83950842279947	37.02962022598793	104.5793382342952	0	0	85.10033790937067	4.509940467608966	11.22920532634299	24.07303207911855	99.99569023176302	0	0
17.05999999999973	-9.230080620283173	-3.240952561156639	27.33169984531353	0	0.9399999999999999	0	44.73707725535536	-10.07332439866964	-10.15341563787887	54.57164445394085	0.9524548739489708	0	0	0	44.73707725535536	-10.07332439866964	-10.15341563787887	54.57164445394085	0.9524548739489708	0	0	0	-8.760854867823396	-2.935068523978972	7.642901082382343	65.81678962783954	0.4772766862881117	29.83904120434236	37.05486819172756	104.5416744414031	0	0	86.37107776489123	4.42672091136918	10.73622121892667	20.45128153798256	102.901688794886	0	0
17.07999999999972	-9.448516056874574	-3.36430741178203	26.44499426606856	0	0.9399999999999999	0	44.73722082488436	-10.07318539023525	-10.15322867774181	54.57180194795561	0.9524576227380805	0	0	0	44.73722082488436	-10.07318539023525	-10.15322867774181	54.57180194795561	0.9524576227380805	0	0	0	-9.011652296199092	-2.892435544549631	7.389740585656558	66.08575675579689	1.261392507844303	30.00617682746848	37.46451620351316	104.9232987799797	0	0	87.74146253086987	3.085367925745957	11.07445721708779	17.09038204198199	105.2831616287311	0	0
17.09999999999972	-9.587273157839256	-3.412383154587491	25.87244528655972	0	0.9399999999999999	0	44.73736117784396	-10.07304930442801	-10.15304569993913	54.57195556240931	0.9524603038160764	0	0	0	44.73736117784396	-10.07304930442801	-10.15304569993913	54.57195556240931	0.9524603038160764	0	0	0	-9.168787899610122	-2.815015831769086	7.119842095108369	66.17794418912929	1.7948998399875	30.3540668828862	37.80653156455229	105.0890038015691	0	0	88.37843419080684	1.922030728407118	11.99734984956159	14.46303904009184	106.7682490762715	0	0
17.11999999999972	-9.663329561381595	-3.455277201899297	25.58165027084578	0	0.9399999999999999	0	44.73754940312971	-10.07286650494316	-10.15279998527931	54.57216100312024	0.9524638894328996	0	0	0	44.73754940312971	-10.07286650494316	-10.15279998527931	54.57216100312024	0.9524638894328996	0	0	0	-9.261944409793758	-2.789222418830716	6.982266150339244	66.11730463500521	1.973233685156654	30.44912542248045	38.24822260420653	105.2594126395004	0	0	88.6926889653307	1.230789233385242	13.20644290406664	12.01681650153527	107.758263474626	0	0
17.13999999999972	-9.755936207646917	-3.510727380696926	25.27539272599532	0	0.9399999999999999	0	44.73772696027168	-10.07269432718468	-10.1525683596749	54.57235478845762	0.9524672716250792	0	0	0	44.73772696027168	-10.07269432718468	-10.1525683596749	54.57235478845762	0.9524672716250792	0	0	0	-9.374666830705371	-2.773424677239246	6.874743851163323	66.09670475903002	2.161856040381869	30.46965649923794	38.67752722266732	105.4761074932491	0	0	89.09751162654068	0.7076512474039107	14.44449861885479	9.652999625798683	108.173445131491	0	0
17.15999999999972	-9.834919010057455	-3.578335502940126	24.97394901465133	0	0.9399999999999999	0	44.73785291059713	-10.07257336118745	-10.15240506427562	54.5724933576501	0.9524696901137297	0	0	0	44.73785291059713	-10.07257336118745	-10.15240506427562	54.5724933576501	0.9524696901137297	0	0	0	-9.479287442730001	-2.769787238734672	6.748006206919996	66.04894709728642	2.417552358596373	30.46907270481637	39.07206226310116	105.6610456027958	0	0	89.41604648268213	0.1084300735560808	14.5374433238	8.124855200634995	109.7482958774887	0	0
17.17999999999972	-9.90327436927527	-3.649428594984288	24.63120691616327	0	0.9399999999999999	0	44.73799044866403	-10.07244105638133	-10.15222651702866	54.57264427939945	0.9524723241951686	0	0	0	44.73799044866403	-10.07244105638133	-10.15222651702866	54.57264427939945	0.9524723241951686	0	0	0	-9.574898982179642	-2.782667741039125	6.66134769401771	65.68206994922589	2.498878019366614	30.46431798867958	39.81768910290479	105.8446426994361	0	0	89.71125360864231	-0.4687296153378601	14.63595667487416	6.812782974068606	111.635896434017	0	0
17.19999999999972	-9.96589785323329	-3.722689025238977	24.35680429214152	0	0.9399999999999999	0	44.73924982455254	-10.07160591811793	-10.15092985644491	54.57443413119758	0.9525035630021688	0	0	0	44.73924982455254	-10.07160591811793	-10.15092985644491	54.57443413119758	0.9525035630021688	0	0	0	-9.680587669428251	-2.78897408373897	6.528752123405046	65.58601457777614	2.668756352195861	30.64520605583919	40.39160031128564	105.8821204535755	0	0	90.01248187922761	-0.5058022889583919	18.1564309674405	4.358630675652586	108.8689544119162	0	0
17.21999999999972	-10.0080324243336	-3.754185949797733	24.13867119429282	0	0.9399999999999999	0	44.73939876972317	-10.07146412775811	-10.15073765247424	54.57459808617946	0.9525064245564276	0	0	0	44.73939876972317	-10.07146412775811	-10.15073765247424	54.57459808617946	0.9525064245564276	0	0	0	-9.73329916176448	-2.791879709914231	6.506217301126659	65.40975259089467	2.610197422623532	30.71344520100618	40.78875702441556	105.9303616716208	0	0	90.20586825570952	-0.8589397019907736	18.23985210848818	3.326237532472618	110.6634776452965	0	0
17.23999999999972	-10.08457534666054	-3.816006008386941	23.88122897305941	0	0.9399999999999999	0	44.73992568694429	-10.07107522076831	-10.15015992240648	54.57530588626595	0.9525187779983828	0	0	0	44.73992568694429	-10.07107522076831	-10.15015992240648	54.57530588626595	0.9525187779983828	0	0	0	-9.8397877714419	-2.777964897535083	6.317927848813043	65.35008548105294	2.791279551360255	30.78160412550586	41.30180058471512	105.9547718723295	0	0	89.91690986053624	-0.3998933341356308	21.53784690904383	0.154604552085513	108.7187287792197	0	0
17.25999999999972	-10.20262820127002	-3.903811364987956	23.39022281578597	0	0.9399999999999999	0	44.74008145950287	-10.07092606366361	-10.14995798784875	54.57547571745932	0.9525217421118797	0	0	0	44.74008145950287	-10.07092606366361	-10.14995798784875	54.57547571745932	0.9525217421118797	0	0	0	-9.993308598601079	-2.775868036059704	6.161890238872098	65.42659584035948	3.187159504838978	30.89671968246442	41.67074937863459	105.9810663019741	0	0	90.07333052729763	-0.04429347633841854	22.53052781794991	-1.324996172304155	107.8605079214977	0	0
17.27999999999972	-10.21927176293153	-3.933836075240038	23.14283815873029	0	0.9399999999999999	0	44.74014885056258	-10.07086232589278	-10.14987131632633	54.57554996324367	0.9525230379452724	0	0	0	44.74014885056258	-10.07086232589278	-10.14987131632633	54.57554996324367	0.9525230379452724	0	0	0	-10.02086129220378	-2.796249622274801	6.158424036471303	65.24720053838057	3.306957724495978	30.85613725100272	41.99778152671833	106.0536648129745	0	0	90.16197974935044	0.1440394428846103	22.42498247651008	-2.972322447959348	109.2588385534796	0	0
17.29999999999972	-10.33678348518607	-3.985838088736204	22.86589770348211	0	0.9399999999999999	0	44.74021445386293	-10.07079983336527	-10.14978654049364	54.57562174302571	0.9525242907388052	0	0	0	44.74021445386293	-10.07079983336527	-10.14978654049364	54.57562174302571	0.9525242907388052	0	0	0	-10.1568479484979	-2.775138937388997	6.055375429161413	65.3076477823238	3.441394342738852	31.02795524553973	42.33931645687456	106.2632403106955	0	0	90.43711825688791	0.2787006941858038	22.07207831299956	-3.185893868714623	109.4207567286434	0	0
